<svg id="Calque_1" data-name="Calque 1" xmlns="http://www.w3.org/2000/svg" xmlns:xlink="http://www.w3.org/1999/xlink" viewBox="0 0 366 84.02"><defs><style>.cls-1{fill:none;}.cls-2{fill:#323031;}.cls-3{clip-path:url(#clip-path);}.cls-4{fill:#0d0e0e;}.cls-5{fill:#13aca7;}</style><clipPath id="clip-path" transform="translate(-177 -317.99)"><rect class="cls-1" width="720" height="720"/></clipPath></defs><title>lecarabin-logo</title><polygon class="cls-2" points="48.52 56.12 34.41 56.12 40.86 18.87 29.32 18.87 20.95 66.27 49.19 66.27 48.52 56.12"/><polygon class="cls-2" points="85.29 28.95 87.07 18.87 58.66 18.87 50.31 66.27 78.7 66.27 80.48 56.12 63.69 56.12 65.22 47.54 80.23 47.54 81.99 37.58 66.97 37.58 68.5 28.95 85.29 28.95"/><g class="cls-3"><path class="cls-2" d="M282.06,374.38c-6.2,0-10.38-3.73-10.38-10.09,0-8.59,6.57-17.6,16.6-17.6,5.51,0,9.43,2.85,10.25,8.17l11.21-3.05c-1.65-9.43-9.57-15.62-21-15.62-17.75,0-28.44,14.13-28.44,28.76,0,12.22,8.36,20,21.27,20a27.76,27.76,0,0,0,25.1-14.85l-10.32-4.61a16,16,0,0,1-14.32,8.92" transform="translate(-177 -317.99)"/><path class="cls-2" d="M339.83,336.86H325.62l-25.77,47.4h12l4.75-9.09,6.68-12.78h0l7.75-14.79,2.35,13.63a6,6,0,0,1,1.81-.21,6.61,6.61,0,0,1,3.36,1,6.68,6.68,0,0,1-2.43,13l-.39,0,0,.16h0l1.56,9.1H349Z" transform="translate(-177 -317.99)"/><path class="cls-2" d="M376.87,363.29c8-1.43,11.8-7.39,11.8-14.5,0-6.9-4.05-11.92-13.68-11.92H357.48l-8.37,47.39h11.55l3.62-20.64h.91l9.47,20.64h12.81l-.76-1.51Zm-7.26-6.65h-4.12l1.82-10.28h4.82c4.19,0,5.52,1.53,5.52,4.19,0,2.36-1.79,6.09-8,6.09" transform="translate(-177 -317.99)"/><path class="cls-2" d="M425.87,336.86H411.68l-25,45.89-.83,1.51h12l4.77-9.1,6.68-12.76h0l7.75-14.81,2.35,13.61a6,6,0,0,1,1.75-.19,6.54,6.54,0,0,1,3.3,1s0,0,0,0a6.68,6.68,0,0,1-2.39,13l-.36,0,0,.16h0l1.56,9.1h11.64Z" transform="translate(-177 -317.99)"/><path class="cls-2" d="M467.25,359.56c4.31-2.46,6-6.75,6-11.81,0-6.84-4.74-10.88-15.27-10.88H443.91l-8.37,47.39h18.9c9.52,0,14.27-3.46,16.56-7.47l1.24-12.39a8.85,8.85,0,0,0-5-4.84M453.86,374.5h-5.39l1.76-10.21h5.68c5.31,0,6.32,1.92,6.32,4.38s-1.53,5.83-8.37,5.83m1.72-19h-3.86l1.56-9.14h3.89c4.79,0,5.77,1.72,5.77,3.9,0,2-1.33,5.24-7.36,5.24" transform="translate(-177 -317.99)"/><polygon class="cls-2" points="302.25 18.87 293.89 66.27 305.43 66.27 313.8 18.87 302.25 18.87"/><path class="cls-2" d="M508.85,336.87H495.46l-8.37,47.39h11.54l5.68-32,13.45,32,4.51-16.21Zm19.2,0-5.55,31.7-2.74,15.69h11.49l8.37-47.39Z" transform="translate(-177 -317.99)"/><path class="cls-4" d="M343,368.56a6.68,6.68,0,0,1-6.9,6.46l-.39,0a6.56,6.56,0,0,1-2.94-1,6.81,6.81,0,0,0,2,.37,4.53,4.53,0,0,0,.83,0A6.67,6.67,0,0,0,338.57,362a6.7,6.7,0,0,1,4.47,6.52" transform="translate(-177 -317.99)"/><path class="cls-5" d="M427.66,367.9a6.66,6.66,0,0,1-6,6.43,5.43,5.43,0,0,1-.9,0,7,7,0,0,1-2-.36,6.7,6.7,0,0,1-4.5-6.53,7,7,0,0,1,.33-1.85,6.47,6.47,0,0,1,1.83-2.85,6.57,6.57,0,0,1,3-1.58,6,6,0,0,1,1.75-.19,6.54,6.54,0,0,1,3.3,1s0,0,0,0a6.64,6.64,0,0,1,3.14,5.87" transform="translate(-177 -317.99)"/><path class="cls-4" d="M429,368.56a6.68,6.68,0,0,1-6.9,6.46l-.35,0a6.52,6.52,0,0,1-3-1,6.81,6.81,0,0,0,2,.37,5.26,5.26,0,0,0,.89,0,6.67,6.67,0,0,0,2.86-12.3,6.68,6.68,0,0,1,4.5,6.53" transform="translate(-177 -317.99)"/><polygon class="cls-5" points="350.91 84.02 0 84.02 14.11 0.1 366 0 363.16 15.9 355.82 15.63 357.09 7.27 20.26 7.37 8.59 76.75 344.52 76.75 346.1 70.27 353.3 70.45 350.91 84.02"/><path class="cls-5" d="M341.68,367.9a6.66,6.66,0,0,1-6.06,6.43,4.53,4.53,0,0,1-.83,0,7.15,7.15,0,0,1-2-.36,6.66,6.66,0,0,1-4.16-8.38,6.64,6.64,0,0,1,4.75-4.41,6,6,0,0,1,1.81-.21,6.68,6.68,0,0,1,6.47,6.89" transform="translate(-177 -317.99)"/></g></svg>